<svg width="341" height="52" viewBox="0 0 341 52" fill="none" xmlns="http://www.w3.org/2000/svg">
<g clip-path="url(#clip0_882_4021)">
<path d="M239.33 5.69L236.81 0C231.91 2.81 226.66 4.46 221.11 4.97H213.98C208.51 4.47 203.25 2.88 198.21 0L195.69 5.69C201.3 9.05 207.59 10.84 213.98 11.31V51.56H221.11V11.29C227.5 10.8 233.77 9.01 239.33 5.69Z" fill="#FA7C92"/>
<path d="M240.08 25.78C240.08 10.88 251.46 0 266.79 0C274.57 0 281.33 2.66 285.94 7.85L281.26 12.39C277.37 8.29 272.62 6.41 267.08 6.41C255.7 6.41 247.28 14.62 247.28 25.78C247.28 36.94 255.7 45.15 267.08 45.15C272.62 45.15 277.38 43.21 281.26 39.1L285.94 43.64C281.33 48.83 274.56 51.56 266.71 51.56C251.44 51.56 240.07 40.69 240.07 25.78H240.08Z" fill="#FA7C92"/>
<path d="M319.1 0C306.14 0 297.5 7.78 297.5 22.68V29.97C292.67 29.29 288.07 27.71 283.75 25.23L281.23 30.92C286.22 33.91 291.79 35.66 297.5 36.35V51.56H304.56V36.64C311.64 36.43 318.67 34.63 324.87 30.92L322.35 25.23C317.31 28.11 312.05 29.69 306.58 30.2H304.56V22.04C304.56 11.53 310.18 6.42 319.1 6.42C328.02 6.42 333.64 11.53 333.64 22.04V51.56H340.84V22.68C340.84 7.77 332.2 0 319.09 0L319.1 0Z" fill="#FA7C92"/>
<path d="M192.24 17.57C192.24 28.51 184.32 35.14 171.21 35.14H158.75V51.56H151.55V0H171.21C184.31 0 192.24 6.62 192.24 17.57ZM185.04 17.57C185.04 10.37 180.21 6.27 171 6.27H158.76V28.88H171C180.22 28.88 185.04 24.78 185.04 17.57Z" fill="#FA7C92" fill-opacity="0.5"/>
<path d="M97.81 51.56C96.99 51.56 96.2 51.25 95.59 50.67C94.78 49.9 94.43 48.76 94.66 47.67L95.85 42.08C91.19 37.81 88.43 32.12 88.04 25.94C87.63 19.4 89.92 13.11 94.49 8.21C103.85 -1.81 120.1 -2.78999 130.72 6.03C135.95 10.38 139.06 16.41 139.47 23C139.88 29.54 137.59 35.83 133.02 40.73C128.13 45.96 121.11 48.96 113.76 48.96H113.74C112.28 48.96 110.81 48.84 109.38 48.6L98.64 51.45C98.37 51.52 98.09 51.56 97.81 51.56ZM113.77 6.4C108.39 6.4 103.03 8.49001 99.2 12.59C95.85 16.18 94.17 20.77 94.47 25.52C94.77 30.33 97.06 34.74 100.92 37.95C102.13 38.95 102.71 40.53 102.44 42.07C102.44 42.11 102.43 42.14 102.42 42.18L102.06 43.89L107.85 42.35C108.56 42.11 109.33 42.06 110.07 42.19C111.29 42.41 112.52 42.52 113.76 42.52H113.77C119.35 42.52 124.65 40.27 128.33 36.33C131.68 32.74 133.36 28.15 133.06 23.4C132.76 18.59 130.47 14.18 126.61 10.98C122.92 7.91 118.34 6.41 113.77 6.41V6.4Z" fill="#FA7C92" fill-opacity="0.5"/>
<path d="M84.5299 5.69L82.0099 0C77.1099 2.81 71.8599 4.46 66.3099 4.97H59.1799C53.7099 4.47 48.4499 2.88 43.4099 0L40.8899 5.69C46.4999 9.05 52.7899 10.84 59.1799 11.31V51.27H66.3099V11.29C72.6999 10.8 78.9699 9.01 84.5299 5.69Z" fill="#FA7C92" fill-opacity="0.5"/>
<path d="M-9.76585e-06 45.22L2.65999 39.6C6.39999 42.98 12.81 45.43 19.29 45.43C28 45.43 31.75 42.05 31.75 37.65C31.75 25.34 1.21999 33.11 1.21999 14.39C1.21999 6.62 7.26999 0 20.52 0C26.43 0 32.55 1.58 36.72 4.46L34.34 10.22C29.95 7.41 24.98 6.12 20.51 6.12C11.94 6.12 8.26999 9.72 8.26999 14.11C8.26999 26.42 38.8 18.72 38.8 37.22C38.8 44.93 32.61 51.55 19.29 51.55C11.58 51.55 4.01999 48.96 -0.0100098 45.21L-9.76585e-06 45.22Z" fill="#FA7C92" fill-opacity="0.5"/>
</g>
<defs>
<clipPath id="clip0_882_4021">
<rect width="340.85" height="51.56" fill="white"/>
</clipPath>
</defs>
</svg>
